<svg id="Layer_1" data-name="Layer 1" xmlns="http://www.w3.org/2000/svg" xmlns:xlink="http://www.w3.org/1999/xlink" viewBox="0 0 787.47 311.85"><defs><style>.cls-1{fill:url(#linear-gradient);}.cls-2{fill:#0071b9;}.cls-3{fill:url(#linear-gradient-2);}.cls-4{fill:#1d2c5e;}.cls-5{fill:url(#linear-gradient-3);}.cls-6{fill:url(#linear-gradient-4);}.cls-7{fill:#312370;}.cls-8{fill:#21386e;}.cls-9{fill:url(#linear-gradient-5);}.cls-10{fill:url(#linear-gradient-6);}.cls-11{fill:url(#linear-gradient-7);}.cls-12{fill:#ffcb05;}.cls-13{fill:#7d7f68;}.cls-14{fill:#c7a008;}.cls-15{fill:#3c5aa6;}.cls-16{fill:#3567b0;}.cls-17{fill:#1e2d5f;}.cls-18{fill:#3466af;}.cls-19{fill:url(#linear-gradient-8);}.cls-20{fill:url(#linear-gradient-9);}.cls-21{fill:#fff;}.cls-22{fill:#2a75bb;}</style><linearGradient id="linear-gradient" x1="452.32" y1="-330.65" x2="423.04" y2="-276.09" gradientTransform="matrix(1, 0, 0, -1, -413.45, -151.15)" gradientUnits="userSpaceOnUse"><stop offset="0" stop-color="#0070b6"/><stop offset="1" stop-color="#1d2c5e"/></linearGradient><linearGradient id="linear-gradient-2" x1="809.35" y1="-219.2" x2="846.51" y2="-179.39" xlink:href="#linear-gradient"/><linearGradient id="linear-gradient-3" x1="647.24" y1="-285.58" x2="642.81" y2="-248.35" xlink:href="#linear-gradient"/><linearGradient id="linear-gradient-4" x1="1053.13" y1="-278.41" x2="1051.36" y2="-244.81" gradientTransform="matrix(1, 0, 0, -1, -413.45, -151.15)" gradientUnits="userSpaceOnUse"><stop offset="0" stop-color="#125d9e"/><stop offset="1" stop-color="#1d2c5e"/></linearGradient><linearGradient id="linear-gradient-5" x1="929.12" y1="-229.98" x2="890.13" y2="-292.01" xlink:href="#linear-gradient-4"/><linearGradient id="linear-gradient-6" x1="584.03" y1="-329.48" x2="610.61" y2="-381.77" gradientTransform="matrix(1, 0, 0, -1, -413.45, -149.19)" gradientUnits="userSpaceOnUse"><stop offset="0" stop-color="#105fa1"/><stop offset="1" stop-color="#1d2c5e"/></linearGradient><linearGradient id="linear-gradient-7" x1="483.71" y1="-311.63" x2="514.48" y2="-382.96" gradientTransform="matrix(1, 0, 0, -1, -413.45, -151.15)" xlink:href="#linear-gradient-6"/><linearGradient id="linear-gradient-8" x1="774.76" y1="1727.63" x2="821.31" y2="1727.63" gradientTransform="translate(-569.45 -1538.69)" gradientUnits="userSpaceOnUse"><stop offset="0" stop-color="#3c5aa6"/><stop offset="0.93" stop-color="#2b73b9"/><stop offset="1" stop-color="#2a75bb"/></linearGradient><linearGradient id="linear-gradient-9" x1="580.34" y1="1703.67" x2="1356.92" y2="1703.67" xlink:href="#linear-gradient-8"/></defs><title>logo</title><polygon id="polygon16" class="cls-1" points="0 129.92 35.14 189.24 49.17 175.86 10.92 118.82 0 129.92"/><polygon id="polygon18" class="cls-2" points="521.8 83.29 520.44 91.11 537.25 85.69 535.15 76.11 521.8 83.29"/><polygon id="polygon25" class="cls-3" points="423.86 29.88 369.78 91.91 385.51 87.38 437.01 23.09 423.86 29.88"/><polygon id="polygon27" class="cls-4" points="713.21 114.69 726.48 107.61 722.69 140.85 713.21 114.69"/><polygon id="polygon29" class="cls-4" points="630.69 136 642.49 138.42 657.55 131.11 644.48 126.23 630.69 136"/><polygon id="polygon36" class="cls-5" points="223.84 100.7 225.73 139.23 242.2 132.58 237.27 93.5 223.84 100.7"/><polygon id="polygon43" class="cls-6" points="643.46 89.21 630.21 96.36 630.69 136 644.03 129.16 648.22 109.98 643.46 89.21"/><polygon id="polygon45" class="cls-7" points="641.64 138.53 627.04 268.19 650.38 263.59 654.95 131.54 641.64 138.53"/><polygon id="polygon47" class="cls-8" points="670.22 274.41 670.63 291.99 715.42 306.27 728.75 299.2 684.8 265.15 640.28 261.24 627.04 268.19 670.22 274.41"/><polygon id="polygon49" class="cls-8" points="504.05 243.48 515.05 237.55 522.07 250.52 532.45 244.81 534.51 261.9 599.63 273.45 612.64 266.3 522.85 211.58 459.15 222.5 446.72 234.31 504.05 243.48"/><polygon id="polygon56" class="cls-9" points="483.31 83.95 470.27 91.13 446.72 234.31 459.91 227.46 482.52 147.06 483.31 83.95"/><polygon id="polygon58" class="cls-4" points="379.28 103.14 368.9 108.67 369.77 112.14 394.49 96.44 383.69 84.85 369.78 91.91 379.28 103.14"/><polygon id="polygon60" class="cls-8" points="407.68 272.28 301.48 219.67 314.81 209.59 420.89 265.14 407.68 272.28"/><polygon id="polygon62" class="cls-4" points="311.46 76.5 295.37 107.01 312.37 101.86 324.64 69.35 311.46 76.5"/><path id="path69" class="cls-10" d="M165.5,204.53l-13.58,9.32s2.88,15.15,6.6,25.69,12.62,19.07,12.62,19.07a48.75,48.75,0,0,0,20.52,11.92c15,4.32,32,1.5,46.52-7.77a88.07,88.07,0,0,0,12.14-9.3C236,262.14,165.5,204.53,165.5,204.53Z" transform="translate(0 -1.96)"/><polygon id="polygon71" class="cls-4" points="238.16 136.09 250.55 272.78 301.17 265.29 314.72 258.19 251.89 127.89 238.97 132.25 225.73 139.23 238.16 136.09"/><polygon id="polygon78" class="cls-11" points="48.36 183.57 104.93 311.85 158.67 294.51 171.79 285.69 60.25 168.99 46.29 177.36 35.14 189.24 48.36 183.57"/><path id="path80" class="cls-4" d="M609,246.05l.76,6.3c4.63-.52,9.49-1.12,13.65-2.6,4.85-1.66,15.39-6.35,19.4-9.81-1.5.55-26.19,6.95-33.81,6.11" transform="translate(0 -1.96)"/><path id="path82" class="cls-4" d="M418.83,213.3l2,10.14c10.88-1.62,20.21-5.64,29.39-11.16,5.76-3.43,12.08-8.61,14.08-10C462.91,203.19,418.83,213.3,418.83,213.3Z" transform="translate(0 -1.96)"/><g id="g84"><path id="path86" class="cls-12" d="M119.63,301.65l-4.2-9.33L61.8,172.63l-1.1-2.45-2.44,1.13-1.63.75-9.55,4.69c-1.41-2.36-3.75-6.32-5.37-9.06L20.13,131.19l-5.65-9.52,9.34-5.92a205.18,205.18,0,0,1,29.66-15.47C75.1,91.07,97.16,86.2,117.27,86.2a111.46,111.46,0,0,1,19,1.58,61.08,61.08,0,0,1,27,9.54,59.26,59.26,0,0,1,25.48,28c4.17,9.63,5,20.9,2.33,32.6l-1.55,6.87,5.71-4.14a66.14,66.14,0,0,1,12.42-7.09A59.75,59.75,0,0,1,231,148.7a50.7,50.7,0,0,1,21,4.38l4.16,1.86-.42-4.54-1.81-19.61-.29-3.11-3,.79-9.09,2.36-1.59-33.39,66.55-21.26-.54,26,5,1.29,14.54-27.86L369,114.16l1.81,1.62,1.77-1.67a68.23,68.23,0,0,1,21-13.37l3.33-1.36L394.6,96.6,386.75,87l50-57.61,26.18,39.06L422.84,90l-8.9,4.79L424,95c19,.4,35.82,8.44,47.36,22.62l4.17,5.15,2.69,3.31-4.47,4.74-3,3.16-10,10.68-1.86,2,2,1.82,9.38,8.45,3.63,3.26.78-4.82,3.6-22.29.92-5.72,0,0,.95-5.84,5.37-32.91h50.23l.38-2.22.94-5.63h43.21l10.47,66.11.68,4.28,3.51-2.55A60.43,60.43,0,0,1,609,141.1a57.55,57.55,0,0,1,20.36-3.8,49.78,49.78,0,0,1,22.9,5.44,3.58,3.58,0,0,0,.79.44l3.25,1.3.38-3.48.78-7.2.26-2.36-2.32-.52-8.76-2-.43-34.46L713,109.21l5,24.8,5.19.1,5.18-21.34L784,126.31,727.12,297.86l-40.73-12.79-.29-15.8,0-2.26-2.25-.32-40.64-5.74,2.3-20.66.55-4.92-4.4,2.25a55.94,55.94,0,0,1-6,2.65,57.05,57.05,0,0,1-20.23,3.78,52.4,52.4,0,0,1-5.85-.32l-3.47-.39.54,3.45L609.47,265l-59.3-10.46-3.11-27-1-8.64-4,7.72-6.83,13.16-12.57-23.2-3.78-7-1.19,7.83-2.74,18-52-8.18,4-24.65.92-5.65L463,199.87a105.36,105.36,0,0,1-29.86,11.73,81.62,81.62,0,0,1-12.58,2l-2.44.2v49L315.81,212.22l-3.85-1.9v4.29l.07,43.26-45.76,6.74-1.92-20.77-.52-5.56-4,3.91a65.51,65.51,0,0,1-20.24,13.64,59,59,0,0,1-23.16,4.84,50,50,0,0,1-21.79-4.82,47.14,47.14,0,0,1-25-30.28,50.4,50.4,0,0,1-1.47-20l.9-7.36-5.37,5.11a129.55,129.55,0,0,1-12.13,10.18l-1.45,1.07.46,1.74L166,275.45l2.72,10.5-10.32,3.28-29,9.29-9.71,3.13Zm13-158.84a26,26,0,0,0-4.6.42l-2,.38-2.92.56L124,147l.57,1.85,8.3,27.16.83,2.61,1.23,3.92,3.07-2.73,2-1.81c8-7.23,10.87-14.57,9.17-23.83-1.07-5.56-5.37-8.32-7.84-9.48a20,20,0,0,0-8.75-1.88h0Zm222.49.89-5.19,5L336.3,162l-3,2.89,3.87,1.5,14.65,5.65,4.5,1.73-.93-4.73a62.81,62.81,0,0,1-1-18.17l.69-7.2Zm59.66-15.1A20.52,20.52,0,0,0,396.91,159L398,161l1.79,3.34,2.52-2.82,1.62-1.8,20-22.88,1.58-1.81,2.53-2.9-3.61-1.34-2.25-.83a20.42,20.42,0,0,0-7.44-1.41h0Z" transform="translate(0 -1.96)"/></g><path id="path88" class="cls-13" d="M445.47,162.49a3.29,3.29,0,0,0-.52.61c.2-.18.4-.34.6-.51Z" transform="translate(0 -1.96)"/><polygon id="polygon90" class="cls-13" points="462.75 144.52 472.76 133.84 469.33 137.48 469.43 137.02 466.4 140.21 456.4 150.86 465.77 159.29 467.47 148.79 472.13 152.97 462.75 144.52"/><polygon id="polygon92" class="cls-13" points="462.75 144.52 472.13 152.97 475.73 130.68 472.76 133.84 462.75 144.52"/><path id="path94" class="cls-13" d="M338.15,163.92l.15.06Z" transform="translate(0 -1.96)"/><path id="path96" class="cls-14" d="M393.57,173.19c.8.81.06.23,1,.84l6.12-4.32a25,25,0,0,1-2.64-2.1c-8.88-8.09-6.58-26.3-.81-36.27-15.17,12.24-14.38,31.08-3.63,41.84" transform="translate(0 -1.96)"/><path id="path98" class="cls-14" d="M467.47,183.39c-10.11,8.36-21.64,13.82-36.86,17.5a72.23,72.23,0,0,1-9.78,1.6c-24.17,2.38-44.45-8.72-52.14-26.72a38.78,38.78,0,0,1-2.26-6.74c-3.56-15.16-.52-28.71,7-39.33.74-1,1.52-2,2.34-3-.38.33-.77.61-1.09.91a49.64,49.64,0,0,0-7.59,8.44c-7.5,10.62-10.54,24.18-6.95,39.31a38.09,38.09,0,0,0,2.22,6.72c7.7,18,28,29.14,52.13,26.78a70.36,70.36,0,0,0,9.8-1.65c15.25-3.68,26.76-9.11,36.87-17.47a81.06,81.06,0,0,0,7.16-6.67l-.21-.2c-.23.2-.4.37-.6.54" transform="translate(0 -1.96)"/><polygon id="polygon100" class="cls-14" points="297.13 135.59 324.14 97.64 323.04 96.63 296.99 133.23 297.13 135.59"/><polygon id="polygon102" class="cls-14" points="475.73 130.68 472.13 152.97 467.47 148.79 465.77 159.29 456.4 150.86 466.4 140.21 469.43 137.02 469.33 137.48 472.76 133.84 475.73 130.68"/><polygon id="polygon104" class="cls-14" points="442.36 68.17 451.82 64.12 434.53 41.94 428.87 49.84 442.36 68.17"/><path id="path106" class="cls-14" d="M180.55,125.09C136.91,71.92,58.26,100.5,30,125.38l1.1,1.91a185.34,185.34,0,0,1,20.56-10.13c28.08-12,54.85-15.51,76.31-11.75a51,51,0,0,1,22.62,7.8,48.24,48.24,0,0,1,21.31,23c7.61,17.5.91,40.78-17,60.27C177.35,175.86,192.74,156.11,180.55,125.09Z" transform="translate(0 -1.96)"/><path id="path108" class="cls-14" d="M269.6,187a26.89,26.89,0,0,0-.72-2.89,36.38,36.38,0,0,0-14.66-20.59C243,156,227.38,154.39,211.79,161a58.69,58.69,0,0,0-21,15.52,57.46,57.46,0,0,1,14.64-9.15c15.55-6.6,31.19-5,42.43,2.56a36.67,36.67,0,0,1,14.67,20.58c.28.95.49,1.94.71,2.94a44,44,0,0,1,.85,10.24,53.64,53.64,0,0,1-10.37,29.17c-1,1.39-2.07,2.68-3.18,4a58.51,58.51,0,0,0,9.48-10.31,53.3,53.3,0,0,0,10.4-29.2A41.57,41.57,0,0,0,269.6,187" transform="translate(0 -1.96)"/><path id="path110" class="cls-14" d="M226.62,174.06c-.06.1,6.33-6.34,6.26-6.34-8-.3-11.38,7.24-11.66,7.83a15.75,15.75,0,0,1,5.4-1.5" transform="translate(0 -1.96)"/><path id="path112" class="cls-14" d="M241.69,183.28a11.37,11.37,0,0,1-.55,8.08c1.28-.67,10.53-5.15,6.94-14.66.19.29-6.62,6.55-6.39,6.58" transform="translate(0 -1.96)"/><path id="path114" class="cls-14" d="M205.31,188.57c0-3.91,6.69-13.4,8.78-16.56C203.51,178.73,199,187.8,199,194.95c0,12.24,10.76,22.09,23.62,22.09,6.08,0,17.23-3.22,24.52-15-3.82,2.51-13.53,8.53-18.62,8.53-12.86,0-23.17-9.67-23.17-22" transform="translate(0 -1.96)"/><polygon id="polygon116" class="cls-14" points="295.82 197.81 295.98 247.36 303.85 247.81 302.29 191.33 295.82 197.81"/><polygon id="polygon118" class="cls-14" points="250.68 103.48 250.84 107.88 288.11 96.79 290.87 144.24 297.09 135.53 295.76 87.91 250.68 103.48"/><polygon id="polygon120" class="cls-14" points="363.33 120.47 328.33 88.35 324.14 97.64 354.95 126.59 363.33 120.47"/><path id="path122" class="cls-14" d="M358,182.31l-41.1-13.59-6,6.32,40.94,16.39a57.09,57.09,0,0,0,20.54,21.72,67.19,67.19,0,0,0,28.76,9.38v20.22l6.35,3.17,2-30.38L358,182.31Z" transform="translate(0 -1.96)"/><path id="path124" class="cls-14" d="M424,176.59c10.09-2.43,15.91-7.7,20.93-13.5-3.76,3.09-22.62,7.19-25.78,8.27L412.94,178c2.84.25,7.58-.51,11.07-1.39" transform="translate(0 -1.96)"/><path id="path126" class="cls-14" d="M405.65,106.71c-18.61,2.44-28.31,18.06-29.92,20a60.55,60.55,0,0,1,25.19-12.41c23-5.57,43.34,1.45,55.89,17l7.77-6.58c-12.43-15.25-35.91-23.5-58.93-17.95" transform="translate(0 -1.96)"/><path id="path128" class="cls-14" d="M468.08,182.85c2.24-1.89,6.23-3.8,8.35-6l-24.92-22.27c-1.91,2.28-3.64,6-6,8l22.53,20.27Z" transform="translate(0 -1.96)"/><path id="path130" class="cls-14" d="M596,242.52c-26.15-21.49-24.58-67.57-11.75-82.19L572.7,88.1l-25.2,3.25-1.12,6.36h19.07l10.1,65.53c-12.85,14.67-19.05,34.32-14.76,52.31a47.68,47.68,0,0,0,24.15,31.66c1.24.68,2.51,1.27,3.82,1.83l.16,1,7.5,1.18s.78-8-.45-8.66Z" transform="translate(0 -1.96)"/><polygon id="polygon132" class="cls-14" points="495.48 96.77 494.39 103.13 523.13 103.13 531.6 149.54 537.97 143.1 531.27 94.11 495.48 96.77"/><polygon id="polygon134" class="cls-14" points="544.67 186.86 535.39 210.83 537.69 217.07 550.96 180.57 544.67 186.86"/><polygon id="polygon136" class="cls-14" points="517.12 171.77 510.73 178.15 503.88 221.44 510.44 223.94 517.12 171.77"/><path id="path138" class="cls-14" d="M646.19,159.9A33.62,33.62,0,0,1,655.57,170a35.78,35.78,0,0,1,4.27,10.38c3.13,13-.61,27.09-8.89,38.38-.83,1.15-1.75,2.25-2.63,3.34,3.36-2.89,44.18-33,4.3-72.54-43.86-14.46-60.47,14.16-62,16a54.63,54.63,0,0,1,15.77-9.41c14.85-5.62,29.45-3.67,39.81,3.76" transform="translate(0 -1.96)"/><path id="path140" class="cls-14" d="M624.07,162.75c.12.28,6.3-6.43,6.42-6.43-7.81.32-11.55,4.09-11.17,5.83a10.53,10.53,0,0,0-1.15,2.08,18.34,18.34,0,0,1,5.89-1.48" transform="translate(0 -1.96)"/><path id="path142" class="cls-14" d="M638.75,172.56a11.8,11.8,0,0,1,.39,3.32,11.53,11.53,0,0,1-1,4.18c1.19-.53,10.65-3.47,7-13.88.09.3-6.49,6.39-6.39,6.38" transform="translate(0 -1.96)"/><path id="path144" class="cls-14" d="M618,205.62c8.83.38,18.59-5,25.59-14.63-18,3.69-36.85-26.23-35-29.16-6.79,4.92-12.8,14.41-13.07,21-.47,12.3,9.55,22.23,22.44,22.75" transform="translate(0 -1.96)"/><polygon id="polygon146" class="cls-14" points="716.48 281.6 720.69 284.42 772.09 130.17 733.63 121.28 733.14 130.31 764.17 137.2 716.48 281.6"/><polygon id="polygon148" class="cls-14" points="655.45 104.74 655.78 113.36 696.68 121.57 712.42 196.25 718.8 189.82 703.8 114.38 655.45 104.74"/><polygon id="polygon150" class="cls-14" points="686.92 189.84 675.66 253.52 682.14 255.62 693.32 183.57 686.92 189.84"/><polygon id="polygon152" class="cls-14" points="156.18 276.89 137.05 207.53 130.05 212.43 147.78 278.88 156.18 276.89"/><path id="path154" class="cls-14" d="M151.22,174.56c-4.41,4.68-14.19,13.78-19.77,17.37l-3.38-10.87-7.41-23.82-4.71-16.13-4.6,5.9L116,163.16,123.45,187l3.37,10.9c7.63-4.92,18.73-14.14,24.4-23.31" transform="translate(0 -1.96)"/><path id="path156" class="cls-13" d="M422.27,133.55c-6-2.32-14.59-1.62-19.21,3.43a34.67,34.67,0,0,0-3.82,5.5c4.47-3.55,12.43-4.32,17.64-2.44l5.38-6.48Z" transform="translate(0 -1.96)"/><path id="path158" class="cls-13" d="M145.7,155.07c-.68-3.57-4.17-6.4-5.88-7.18-3.06-1.48-8.36-1.71-12.23-1,.7,2.4,1.49,5.22,1.83,6.37a24.47,24.47,0,0,1,5.5,1.3c1.7.82,4.67,2.75,5.36,6.34.92,4.79.68,9.27-1.32,12.9,5.47-5.37,8.13-11.21,6.74-18.73" transform="translate(0 -1.96)"/><g id="g160"><g id="g162"><path id="path164" class="cls-15" d="M155.28,155c-2.63-14.1-21.06-21.87-39.34-11.9l4.71,16.13L128.07,183l3.38,10.86C145.16,185.09,158.94,174.5,155.28,155Zm-18.15,21.68c-2-6.51-6.37-20.58-6.37-20.58s-.86-3-1.91-6.53a17.51,17.51,0,0,1,10.66,1.06c1.71.82,4.72,2.72,5.38,6.32C146.4,165,143.67,170.82,137.13,176.65Z" transform="translate(0 -1.96)"/></g></g><g id="g166"><g id="g168"><path id="path170" class="cls-16" d="M431.83,132.61a25.06,25.06,0,1,0-33.82,37,22.53,22.53,0,0,0,2.64,2.11l33-37.32C433,133.76,432.44,133.15,431.83,132.61Zm-31.12,26.25a16.17,16.17,0,0,1,20-22.85Z" transform="translate(0 -1.96)"/></g></g><polygon id="polygon172" class="cls-17" points="475.87 126.54 457.62 144.13 474.95 159.7 475.87 126.54"/><path id="path174" class="cls-18" d="M645.09,166.18a12.14,12.14,0,0,1,.39,3.37c-.3,7-6.86,12.36-14.67,12s-13.94-6.2-13.64-13.15c.26-6.52,6.07-11.68,13.25-12a23.12,23.12,0,0,0-4.27-.52c-13.07-.56-23.76,8.69-24.21,20.22-.5,12.33,9.38,22.38,22.24,22.93,13.09.52,23.77-8.77,24.29-21a20.18,20.18,0,0,0-3.38-11.8" transform="translate(0 -1.96)"/><path id="path183" class="cls-19" d="M248.55,180.26c0,7-6.37,12.61-14.17,12.61s-14.16-5.61-14.16-12.61c0-6.53,5.58-11.91,12.74-12.53a23.91,23.91,0,0,0-4.27-.39c-13.07,0-23.38,9.69-23.38,21.24,0,12.32,10.31,22,23.17,22,13.08,0,23.38-9.67,23.38-22A19.59,19.59,0,0,0,248,177a10.5,10.5,0,0,1,.53,3.28" transform="translate(0 -1.96)"/><g id="g185"><g id="g187"><path id="path196" class="cls-20" d="M726.39,109.54l-5.8,23.92L715.23,107l-71.77-15.8.5,39.91,10.82,2.43-.78,7.2a1.09,1.09,0,0,1-.3-.2c-13.41-7.07-30-7.8-45.67-1.89a63,63,0,0,0-14.54,7.86L582.66,78.12H534.93L533.61,86H483.37l-5.74,35.13L473.47,116c-12.17-15-29.82-23.19-49.37-23.6l42.65-22.93L437,25.05,383.27,87l9.28,11.31a70.84,70.84,0,0,0-21.82,13.89L324.65,71.29l-16.11,30.88.62-29.67-72,23,1.85,38.7L251.22,131,253,150.64c-14-6.29-30.84-6.13-46.45.46a68.82,68.82,0,0,0-12.91,7.38c2.7-11.95,2.06-23.73-2.49-34.23A61.62,61.62,0,0,0,164.74,95.1a63.41,63.41,0,0,0-28-9.94c-24.93-4.36-54.86.12-84.32,12.67a207.8,207.8,0,0,0-30,15.67l-11.52,7.3,7,11.74L39.43,169s6.6,11.18,6.65,11.17l11.67-5.74,1.63-.75L113,293.41l5.17,11.51,12-3.86,29-9.3,12.72-4-3.35-12.95-15.41-59.16a130,130,0,0,0,12.39-10.41,53.37,53.37,0,0,0,1.54,21.08,49.75,49.75,0,0,0,26.46,31.95c14.08,6.77,31.25,6.78,47.14,0a68.56,68.56,0,0,0,21.06-14.18l2.19,23.56,50.82-7.48-.08-45.57,106.19,52.48V216.26a83.77,83.77,0,0,0,13-2.1c11.7-2.83,21.7-6.7,30.6-12l-4.46,27.29,57.25,9,3.14-20.6,15,27.62,9.14-17.61,3.34,28.92,64.91,11.44-3.44-21.84A60.41,60.41,0,0,0,642.83,240l-2.59,23.24,43.2,6.1.32,17.72,45.05,14.14,58.65-176.78-61.08-14.85ZM472.76,135.81l3-3.16-3.6,22.29-9.38-8.45Zm-38-91,15.73,21.36-45,22.29-3.11-4.72ZM137,209.51l17.94,68.83-29,9.28L66.29,154.56c-3.24,1.7-9.23,4.56-14.72,7.26L30,125.37A188,188,0,0,1,58,110.8c28.09-11.95,54.89-15.51,76.32-11.72A51.11,51.11,0,0,1,157,106.84c9.65,5.43,17,13.16,21.28,23C188.61,153.83,171.28,188.34,137,209.51Zm133.49-12.25a53.28,53.28,0,0,1-10.4,29.21A58.15,58.15,0,0,1,235.84,246c-25.19,10.67-50.38,0-57.11-23.92-6.52-23.12,8.65-50.65,33.06-61.17,15.59-6.58,31.23-5,42.43,2.59a36.4,36.4,0,0,1,14.66,20.59,28,28,0,0,1,.72,2.89A42,42,0,0,1,270.46,197.26Zm137.06,48.67-105.36-52.7.19,55.21-27.26,3.72-1.9-22.76c8.42-14.43,11.49-31.44,7.1-47a49.37,49.37,0,0,0-12.92-22L263.46,114l-12.24,3.17-.54-11.73,43.77-13,2.68,45.14,32.24-45.3,31.52,30-44.08,46.44,41.41,16.38a56.88,56.88,0,0,0,20.54,21.7,67,67,0,0,0,28.74,9.43v29.7h0Zm-54.71-76.35-14.66-5.65,13.66-13.28A65.46,65.46,0,0,0,352.81,169.58Zm114.66,13.8c-10.11,8.36-21.64,13.82-36.86,17.5a72.23,72.23,0,0,1-9.78,1.6c-24.17,2.38-44.45-8.72-52.14-26.72a38.78,38.78,0,0,1-2.26-6.74c-3.56-15.16-.52-28.71,7-39.33a47.73,47.73,0,0,1,7.59-8.46,60.5,60.5,0,0,1,26.3-13.33c23-5.55,43.3,1.48,55.73,16.73l-43.88,46.7c3,.56,7.71-.22,11.2-1.05,10.45-2.55,16.3-8.09,21.45-14.14l17.53,15.77,5.31,4.8A94.53,94.53,0,0,1,467.47,183.39Zm93.08,62.32L551,182.49l-13.5,34.88L517.3,173.77h-.23l-8,50.48-33.69-5.86,4.74-28.17c1.27-1.2,2.52-2.39,3.75-3.66l10.92-11.24-10.61-9.5,11.27-67.09h34L538,145.17l9.53-53.82h24.31l10.09,65.57c-12.84,14.62-19.07,34.28-14.78,52.27a47.86,47.86,0,0,0,24.17,31.73c1.24.62,2.52,1.24,3.84,1.77l1.29,8.5-35.85-5.48Zm83.94-20.6a52.34,52.34,0,0,1-12.2,6.51,45.41,45.41,0,0,1-25,2.46,37.31,37.31,0,0,1-14.5-6.17,36.19,36.19,0,0,1-13.94-21.19c-2.56-10.9-.2-22.53,5.66-32.73a58.84,58.84,0,0,1,11.11-13.7,55.38,55.38,0,0,1,17.07-10.52c14.85-5.54,29.5-3.63,39.82,3.78a34.89,34.89,0,0,1,9.42,10.09A36.21,36.21,0,0,1,666.17,174c3.16,13.09-.6,27.1-8.86,38.39A57,57,0,0,1,644.5,225.11Zm75.85,59.59-24.91-7.42-2.17-91.84-12.53,70.85L653.56,252l1.95-20.4c17.74-15,27.15-38.65,22-60.08a47.13,47.13,0,0,0-14-24l2.29-24.06-10.27-2.74.69-12.84L703,117.21l15.74,74.65,16.15-66.93,35.62,7.87L720.35,284.7Z" transform="translate(0 -1.96)"/></g></g><g id="flowRoot3115"><path id="path3084" d="M740.82,293.41v-6.93h-2.59v-.93h6.23v.93h-2.6v6.93Z" transform="translate(0 -1.96)"/><path id="path3086" d="M745.5,293.41v-7.86h1.57l1.86,5.57q.26.78.38,1.16.13-.43.42-1.26l1.88-5.47H753v7.86h-1v-6.58l-2.28,6.58h-.94l-2.27-6.69v6.69Z" transform="translate(0 -1.96)"/></g><path class="cls-21" d="M56.15,87.3c-1.95.54-4,.06-6.25-1.4A9.71,9.71,0,0,1,46,81.51c-.37-.64-1.88-2.68-7.69-9-2.23-2.44-3.77-4.13-4.6-5.06l-.06-.07c-.4-.49-1.1-1.28-2.07-2.35-7.69-8.48-9.18-10.87-9.55-12s-1.13-5.23,6.07-7.49h0c2.44-.73,4.54.51,5.9,1.51a17.72,17.72,0,0,1,4.38,4.79c2,3.12,4.66,6.81,7.82,11q.82,1.09,1.58,2.05c-.28-2.31-.59-5.08-.91-8.3-.42-4.15-.57-5.52-.63-5.93A6.6,6.6,0,0,1,47.23,46a7.32,7.32,0,0,1,4.25-3.12l.12,0A6.83,6.83,0,0,1,57.77,44a43.91,43.91,0,0,1,4.39,4.15C67.55,53.86,71.33,57.6,74,60q-.77-2.66-1.54-5.58c-.74-2.82-1.64-6.92-2.65-12.17-1.41-7.31-1.27-9.42-1-10.43a6,6,0,0,1,4.7-4.11l.16,0c2-.46,6.89-.87,8.32,5,.4,1.67,1.11,6.14,2.2,13.64,1.17,8.06,2,13.12,2.5,15a38.26,38.26,0,0,0,1.52,5.29A6.42,6.42,0,0,1,90.66,70,4.44,4.44,0,0,1,89.6,74,6.56,6.56,0,0,1,86,76.28l-.1,0c-2.4.54-5.4-.06-9.5-1.87A59.68,59.68,0,0,1,65,67.58q-2.87-2.14-5.38-4.33c.39,11.1,1,15.11,1.35,16.45a5.53,5.53,0,0,1-.53,4.54,7,7,0,0,1-4.18,3Z" transform="translate(0 -1.96)"/><path class="cls-22" d="M74.16,29.66c2.79-.64,4.56.58,5.31,3.61q.59,2.39,2.22,13.48c1.22,8.16,2.1,13.21,2.58,15.17q1.41,5.67,2,6.09a4.9,4.9,0,0,1,2,2.6,2.55,2.55,0,0,1-.63,2.29,3.85,3.85,0,0,1-2.08,1.41h-.06c-1.72.39-4.29-.19-7.75-1.72a56.91,56.91,0,0,1-11-6.61,73.83,73.83,0,0,1-9.87-8.72c.32,13,1,20.69,1.67,23.12a3.72,3.72,0,0,1-.3,3.07,4.25,4.25,0,0,1-2.6,1.87h0c-1.14.31-2.49-.06-4.08-1.11a7.77,7.77,0,0,1-3.18-3.64c-.58-1.1-3.19-4.28-8-9.47-2.21-2.44-3.74-4.12-4.56-5q-.62-.77-2.13-2.43c-5.59-6.27-8.69-10-9.14-11.39-.68-2,.72-3.64,4.21-4.74h0q1.21-.36,3.39,1.21A15.8,15.8,0,0,1,36.11,53q3.1,4.76,7.95,11.08a62,62,0,0,0,7.56,8.69c-.48-1.6-1.23-7.13-2.16-16.61-.32-3.38-.53-5.38-.62-6a4.78,4.78,0,0,1,.66-3.41,4.37,4.37,0,0,1,2.56-1.93l.07,0a4.06,4.06,0,0,1,3.73.79,43,43,0,0,1,4.21,4c9.28,9.75,15.3,15.33,18.47,16.52Q76.77,60.71,75,53.79q-1.09-4.19-2.58-12.08T71.4,32A3.28,3.28,0,0,1,74,29.68l.11,0m-.91-4-.2,0c-3.53.86-6,3-6.76,5.89-.35,1.33-.48,3.61,1,11.18.71,3.63,1.37,6.71,2,9.21-1.47-1.51-3.12-3.23-5-5.21a45.9,45.9,0,0,0-4.58-4.34,9.58,9.58,0,0,0-8.61-1.61l-.17,0A10.21,10.21,0,0,0,45,45.21a8.36,8.36,0,0,0-1.23,6c0,.28.17,1.29.52,4.71q-2-2.81-3.53-5.19a19.31,19.31,0,0,0-4.82-5.27c-1-.76-4.21-3.07-8.3-1.85h0l-.07,0c-7.62,2.39-9,7.05-7.94,10.25.48,1.4,2.08,3.85,9.93,12.53,1.22,1.32,1.78,2,2,2.29l.05.07.06.06c.83.93,2.35,2.58,4.63,5.06,5.79,6.24,7.14,8.12,7.47,8.63a11.63,11.63,0,0,0,4.54,5.1,10,10,0,0,0,8.41,1.67h0l.08,0A9.64,9.64,0,0,0,62.57,85a7.42,7.42,0,0,0,.77-6c-.24-.85-.65-3.34-1-10.5l.87.66a62.3,62.3,0,0,0,11.91,7.1c4.66,2,8.21,2.69,11.25,2l.14,0A9.37,9.37,0,0,0,91.59,75a6.3,6.3,0,0,0,1.5-5.56,7.86,7.86,0,0,0-2.64-4.05c-.2-.56-.59-1.84-1.27-4.66-.31-1.28-1-4.9-2.42-14.89C85.7,38.31,85,33.79,84.59,32.07c-1.49-6.25-6.84-7.43-11.34-6.41Z" transform="translate(0 -1.96)"/><path class="cls-21" d="M107.41,72.73a13.24,13.24,0,0,1-3.28.32,5.15,5.15,0,0,1-3.41-1.59l-.11-.11-.09-.12C99.67,70,98,67,93.25,54.61l0-.09c-.52-1.61-1.78-4.76-3.76-9.36-3.11-7.21-4.94-11.95-5.55-14.48-.66-2.74-.42-4.91.74-6.61s3.56-3.11,6.89-3.83l.19,0a9.3,9.3,0,0,1,5.15.27,4.45,4.45,0,0,1,3.05,3.19c.09.44.21,1.19.35,2.3.31,2.44.7,4.73,1.15,6.81.25,1.15.93,3.25,2,6.21l.26.77q.74-.77,1.64-1.54a22.26,22.26,0,0,1,10.51-5l.19,0a10.5,10.5,0,0,1,10.08,3.57c2.37,2.7,4,6.69,4.95,12.17.08.46.22,1.54.53,5.51s.55,5.69.66,6.36a5.55,5.55,0,0,1-1.41,4.83,9.16,9.16,0,0,1-5.31,2.62l-.1,0h-.11a8.66,8.66,0,0,1-4.8-.68,4.66,4.66,0,0,1-2.69-3.32c-.15-.76-.32-2.19-.51-4.36a84.87,84.87,0,0,0-1.11-8.64,21,21,0,0,0-2.27-6.56,6.06,6.06,0,0,0-.89-1.21c-.59.31-1.71,1.16-3.16,3.52s-2.1,4.55-1.76,6.16a42.55,42.55,0,0,0,2.83,9,25.92,25.92,0,0,1,1.93,4.61,4.15,4.15,0,0,1-1,3.78,7.3,7.3,0,0,1-4,2Z" transform="translate(0 -1.96)"/><path class="cls-22" d="M92.14,22.2a6.2,6.2,0,0,1,3.43.15,2.55,2.55,0,0,1,1.78,1.84q.13.59.33,2.16.5,3.75,1.2,6.94a63,63,0,0,0,2,6.41q1.46,4.19,2,6.14c.18-1.93,1.58-4,4.21-6.29a19.23,19.23,0,0,1,9.1-4.34l.14,0A7.84,7.84,0,0,1,124,38q3.2,3.64,4.58,11.33.18,1,.53,5.34.42,5,.7,6.53a3.71,3.71,0,0,1-.89,3.23,6.46,6.46,0,0,1-3.75,1.78,5.92,5.92,0,0,1-3.28-.43,2.73,2.73,0,0,1-1.59-2q-.2-1-.47-4.18a86.94,86.94,0,0,0-1.11-8.82,22.51,22.51,0,0,0-2.45-7.1q-1.57-2.65-3.13-2.38h0c-1.86.36-3.69,2-5.47,4.9s-2.42,5.4-2,7.47a43.31,43.31,0,0,0,3,9.42,37.93,37.93,0,0,1,1.82,4.23c.36,1.72-.64,2.82-3,3.32l-.41.08a10.78,10.78,0,0,1-2.53.27,2.8,2.8,0,0,1-1.82-.92c-1.24-1.75-3.55-7.17-7-16.24-.53-1.66-1.78-4.84-3.78-9.51-3-7.07-4.84-11.81-5.41-14.23q-.79-3.36.46-5.19c.84-1.22,2.53-2.12,5.06-2.67l.14,0m-.81-4-.23,0c-4.15.9-7.1,2.6-8.73,5-1.48,2.17-1.8,4.8-1,8C82,33.9,83.87,38.71,87,46c2,4.55,3.23,7.65,3.74,9.21l0,.09,0,.08c4.83,12.4,6.55,15.6,7.55,17l.18.25.22.22a7.61,7.61,0,0,0,5,2.26,16,16,0,0,0,4-.37l.49-.1a10,10,0,0,0,5.5-2.84,6,6,0,0,0,1.52-5.45c-.11-.53-.33-1.26-2-5a40.17,40.17,0,0,1-2.68-8.71c-.24-1.16.28-2.84,1.52-4.86l.3-.47a24.34,24.34,0,0,1,1.27,4.4,84.18,84.18,0,0,1,1.12,8.46,43.81,43.81,0,0,0,.55,4.53,6.56,6.56,0,0,0,3.79,4.64,11.39,11.39,0,0,0,6.31.92l.21,0,.21,0a11.84,11.84,0,0,0,6.87-3.45,7.5,7.5,0,0,0,1.95-6.35v-.07c-.11-.65-.31-2.25-.62-6.21s-.43-5.12-.53-5.66c-1-5.8-2.73-10.06-5.31-13a13.27,13.27,0,0,0-12.57-4.33l-.24,0A25.29,25.29,0,0,0,105,35.67c-.62-1.89-.89-2.9-1-3.43-.43-2-.81-4.29-1.11-6.69-.19-1.53-.3-2.12-.36-2.43a6.38,6.38,0,0,0-4.31-4.54,12.56,12.56,0,0,0-6.89-.39Z" transform="translate(0 -1.96)"/><path class="cls-21" d="M152,64.77c-4.79.61-8.85-.19-12.11-2.42s-5.34-5.71-6.15-10.39A21.65,21.65,0,0,1,135,40.69a23.22,23.22,0,0,1,6.59-9.8l.06-.05a2,2,0,0,0,.15-.24A5.57,5.57,0,0,1,146,27.92l.15,0a13.76,13.76,0,0,1,3.33,0,6.63,6.63,0,0,0,1.55,0l.23,0a18.68,18.68,0,0,1,15.86,6.79,16.36,16.36,0,0,1,3.23,8.15,17.13,17.13,0,0,1-1.69,9.74,22,22,0,0,1-6.8,8,21,21,0,0,1-9.52,4.13Zm-.56-27.38a9.27,9.27,0,0,0-1.83,3.3,16.61,16.61,0,0,0-.94,8.52,10.48,10.48,0,0,0,1.88,5.09c.82,1,1.36.92,1.57.89.82-.11,1.77-1.07,2.63-2.62a9.88,9.88,0,0,0,1.16-6.4,15.47,15.47,0,0,0-2.64-6.77A7.7,7.7,0,0,0,151.43,37.4Z" transform="translate(0 -1.96)"/><path class="cls-22" d="M146.44,29.93A10.06,10.06,0,0,1,149,30a10.33,10.33,0,0,0,2.35,0h.09l.14,0a14.27,14.27,0,0,1,7.06,1.18A15,15,0,0,1,165,35.86a14.64,14.64,0,0,1,2.91,7.3,15.3,15.3,0,0,1-1.48,8.76,19.59,19.59,0,0,1-6.09,7.18,18,18,0,0,1-8.22,3.61l-.35,0c-4.09.52-7.48-.14-10.21-2s-4.58-5-5.3-9.19a19.93,19.93,0,0,1,1.24-10.38,21.11,21.11,0,0,1,6-8.92,2.84,2.84,0,0,0,.72-.89,2.79,2.79,0,0,1,2.17-1.42h.1m5.92,27.29h.07c1.76-.25,3.28-1.53,4.57-3.86a11.72,11.72,0,0,0,1.41-7.5,17,17,0,0,0-2.91-7.52c-1.55-2.23-3-3.26-4.3-3.1h0c-1.49.21-2.84,1.86-4,5a18.18,18.18,0,0,0-1,9.38,12.09,12.09,0,0,0,2.3,5.94,4.2,4.2,0,0,0,3.9,1.7m-6.45-31.35-.19,0a8.37,8.37,0,0,0-6.17,3.85,25.32,25.32,0,0,0-7,10.48,23.29,23.29,0,0,0-1.34,12.14c.92,5.18,3.3,9.07,7,11.59s8.5,3.54,14,2.83l.43-.06a23.78,23.78,0,0,0,10.82-4.64A24.32,24.32,0,0,0,171,53.3a18.9,18.9,0,0,0,1.9-10.72,18,18,0,0,0-3.55-9,19.36,19.36,0,0,0-8.22-6.13,20.21,20.21,0,0,0-10.09-1.57l-.24,0a4.56,4.56,0,0,1-.8,0,16.42,16.42,0,0,0-4.09,0Zm6.24,26.46a11.28,11.28,0,0,1-1-3.48,14.67,14.67,0,0,1,.67-7.1,14,14,0,0,1,1.57,4.76,8.15,8.15,0,0,1-.93,5.29c-.11.2-.22.38-.32.53Z" transform="translate(0 -1.96)"/><path class="cls-21" d="M171,24.52a10,10,0,0,1-4.24-.43,3.82,3.82,0,0,1-2.87-3c-.15-1.19.53-2.74,2.41-5.22a27.18,27.18,0,0,0,2.1-3.37,15.7,15.7,0,0,1,2.49-3.76A5.7,5.7,0,0,1,174.3,7.1l.16,0A10.92,10.92,0,0,1,180,8c2.06.93,3.17,2.07,3.3,3.38.07.74-.11,1.85-1.83,4.92a17.48,17.48,0,0,1-4.9,5.6c-2.21,1.62-3.86,2.42-5.38,2.58Z" transform="translate(0 -1.96)"/><path class="cls-22" d="M174.64,9.12a7.77,7.77,0,0,1,3.92.69q2,.89,2.07,1.84c.06.61-.47,1.91-1.6,3.92a15.08,15.08,0,0,1-4.24,4.88,9.54,9.54,0,0,1-3.89,2h-.14a6.79,6.79,0,0,1-2.9-.28q-1.3-.46-1.42-1.4c-.08-.68.6-2,2.06-4a29.13,29.13,0,0,0,2.27-3.61A15.46,15.46,0,0,1,172.9,10a2.71,2.71,0,0,1,1.63-.84h.11M174.28,5h0l-.2,0a8.71,8.71,0,0,0-5.29,2.48,17.69,17.69,0,0,0-2.87,4.29,24.38,24.38,0,0,1-1.88,3l0,0,0,0c-2.19,2.94-3,4.83-2.75,6.5.27,2,1.85,3.69,4.32,4.55a13.1,13.1,0,0,0,5.58.59l.23,0c2.11-.23,4.22-1.2,6.87-3.14a19.81,19.81,0,0,0,5.56-6.3c1.62-2.86,2.21-4.51,2.07-5.92-.19-2-1.7-3.65-4.52-4.92A14.05,14.05,0,0,0,174.28,5Z" transform="translate(0 -1.96)"/><path class="cls-21" d="M200.16,59.66a24.62,24.62,0,0,1-9.45-1c-3.9-1.37-4.94-3.75-5.12-5.51A9.1,9.1,0,0,1,187,46.84a7.81,7.81,0,0,1,1.48-1.6l-1,.11h-.11a7.19,7.19,0,0,1-5-1.57A6.08,6.08,0,0,1,180,39.52c-.2-1.84.7-4.17,2.79-7.12a29.68,29.68,0,0,1,6.95-7A16.53,16.53,0,0,1,198.11,22h.19a10.73,10.73,0,0,1,5.45,1,10,10,0,0,1,3.88,3.45,8.39,8.39,0,0,1,1.59,4.06A4.33,4.33,0,0,1,207.58,34a6.52,6.52,0,0,1-1.21.88q.7.17,1.45.37a17.59,17.59,0,0,1,7.43,3.84,9,9,0,0,1,3,6.22A9.76,9.76,0,0,1,215.82,52a19.92,19.92,0,0,1-6.72,5.17,22.18,22.18,0,0,1-8.3,2.43Zm-.39-8.76a7.2,7.2,0,0,0,3.94-1.25c1-.8,1.13-1.38,1.1-1.74-.08-1.14-.27-3.79-7.39-3.55l.29.16c1.91,1.08,2.39,2.35,2.45,3.22a4.75,4.75,0,0,1-.69,3.19Zm-3.43-17.73a3.33,3.33,0,0,0-1.41.93,5.84,5.84,0,0,0-.48.56l1.31-.13,1.49-.13a3.6,3.6,0,0,1-.81-1.09A.63.63,0,0,0,196.34,33.17Z" transform="translate(0 -1.96)"/><path class="cls-22" d="M198.42,24a7.69,7.69,0,0,1,3.92.74,7.79,7.79,0,0,1,3,2.7,6.85,6.85,0,0,1,1.31,3.22,2.54,2.54,0,0,1-1,2,4.32,4.32,0,0,1-2.75,1.11h-.21c-2.13.11-3.42-.3-3.87-1.25a2.87,2.87,0,0,0-.91-1.06,1.82,1.82,0,0,0-1.19-.44h0a5.74,5.74,0,0,0-3.79,1.85A4.16,4.16,0,0,0,191.42,36a.76.76,0,0,0,.68.7,8.36,8.36,0,0,0,2,0l.45,0,1.44-.15q2.63-.23,4.12-.34h.15a21.39,21.39,0,0,1,6.65,1,15.08,15.08,0,0,1,6.37,3.25,7.21,7.21,0,0,1,2.4,5,7.94,7.94,0,0,1-2,5.49,17.36,17.36,0,0,1-5.9,4.53,19.19,19.19,0,0,1-7.21,2.14l-.6,0a21.66,21.66,0,0,1-8.31-.83c-2.26-.8-3.48-2.08-3.65-3.85a7.37,7.37,0,0,1,1.14-5.12,5.08,5.08,0,0,1,3.91-2.24h.11a5.29,5.29,0,0,1,3,.63q1.35.76,1.42,1.71.16,1.93-.8,2.39a1.57,1.57,0,0,0-1,1.63q.05.6,1.26.86a9.64,9.64,0,0,0,2.58.16h.21a10,10,0,0,0,5.47-1.8,4,4,0,0,0,1.92-3.38c-.27-4-3.89-5.82-10.82-5.39l-.55,0q-3.69.28-7.24.77l-1.34.15h-.06a4.38,4.38,0,0,1-3.08-1,4.25,4.25,0,0,1-1.69-3c-.14-1.4.67-3.37,2.48-5.91a27.39,27.39,0,0,1,6.43-6.46A13.86,13.86,0,0,1,198.28,24h.15m-.23-4.08-.24,0a19.36,19.36,0,0,0-9.93,4,31.85,31.85,0,0,0-7.47,7.53c-2.38,3.37-3.35,6-3.1,8.33a8,8,0,0,0,3.2,5.53,10.07,10.07,0,0,0,3.49,1.77,11.19,11.19,0,0,0-1,6.33c.34,3.27,2.69,5.8,6.58,7.17a27.11,27.11,0,0,0,10.59,1.14l.69,0a25.09,25.09,0,0,0,9.39-2.72,22.39,22.39,0,0,0,7.53-5.8,11.55,11.55,0,0,0,2.85-7.95,10.74,10.74,0,0,0-3.56-7.45,18.5,18.5,0,0,0-6.48-3.8,5.5,5.5,0,0,0,1.09-3.56,10,10,0,0,0-1.87-4.9,12.17,12.17,0,0,0-4.74-4.2,13.74,13.74,0,0,0-7-1.34Z" transform="translate(0 -1.96)"/><path class="cls-21" d="M258.19,57.59a7.67,7.67,0,0,1-5.45-2.34c-1.29-1.34-2.13-3.41-2.6-6.29a83,83,0,0,1-1.22-12.11c0-2.11-.21-5.19-.58-9.16-.23-2.41-.41-4.53-.54-6.32-1,.18-2.13.41-3.44.69-5.38,1.16-7.19,1.36-8.09,1.38h0a6.17,6.17,0,0,1-4.55-1.81A5,5,0,0,1,230,18.29,4.9,4.9,0,0,1,231.27,15a5.62,5.62,0,0,1,4.33-2c.51,0,2.7-.25,12-1.8,4.67-.77,5.85-.91,6.35-.95.16,0,1.11-.15,6-.9,11.35-1.75,14.26-1.78,15.42-1.74h0a6.76,6.76,0,0,1,4.49,1.88A4.7,4.7,0,0,1,281.53,13a4.51,4.51,0,0,1-2.27,3.58,8.25,8.25,0,0,1-5,1.37c-1.29,0-3.57.06-6.78.33-2.14.18-4,.37-5.46.57.05,1.61.21,4,.5,6.93.21,2.17.34,3.61.37,4.36.07,1.75.25,4.53.52,8.24.33,4.58.51,6.13.6,6.63a30.74,30.74,0,0,0,1,3.47,14.78,14.78,0,0,1,1,4.36,4.28,4.28,0,0,1-2.67,3.72,10.82,10.82,0,0,1-5,1Z" transform="translate(0 -1.96)"/><path class="cls-22" d="M275.4,9.61a3.7,3.7,0,0,1,2.45,1.09,2.93,2.93,0,0,1,1.05,2.21A2.73,2.73,0,0,1,277.5,15a5.14,5.14,0,0,1-3.17.88,70.51,70.51,0,0,0-7.15.34c-3.35.28-5.93.59-7.77.92v.53q0,2.43.55,8.21.34,3.21.38,4.27.12,2.68.55,8.3t.65,6.82a34.73,34.73,0,0,0,1,3.68,15,15,0,0,1,1,3.82,2.29,2.29,0,0,1-1.5,2,8,8,0,0,1-3.7.72h-.09A4.93,4.93,0,0,1,254.68,54q-1.48-1.54-2.06-5.27a77.92,77.92,0,0,1-1.16-11.87q0-3.24-.56-9.3-.49-5.39-.66-8.66c-1.29.14-3.49.53-6.59,1.2a51.7,51.7,0,0,1-7.46,1.31h-.05a3.27,3.27,0,0,1-2.4-1,3.23,3.23,0,0,1-1.1-2.12,3.2,3.2,0,0,1,.83-2.15A2.78,2.78,0,0,1,235.66,15c1.29,0,5.46-.69,12.54-1.84,3.44-.58,5.46-.87,6.07-.91s2.66-.37,6.26-.93c8.24-1.25,13.21-1.75,14.82-1.7h.06m.19-4.08h-.15c-1.47,0-4.56,0-16,1.78-4.49.7-5.55.85-5.78.88-.64.05-1.95.2-6.6,1-9.14,1.49-11.15,1.73-11.55,1.75a8.37,8.37,0,0,0-6.45,3,6.59,6.59,0,0,0-1.63,4.48,6.76,6.76,0,0,0,2.24,4.52,9.06,9.06,0,0,0,6.51,2.58h.15c1.19,0,3.15-.24,8.74-1.45l.34-.07q.16,1.79.36,3.88c.38,3.93.58,7,.61,9a81.78,81.78,0,0,0,1.29,12.39c.53,3.29,1.53,5.61,3.14,7.27a10.33,10.33,0,0,0,7.34,3.12h.18a13.65,13.65,0,0,0,6.35-1.32c2.4-1.21,3.81-3.17,3.85-5.4A15.15,15.15,0,0,0,267.43,48a30.43,30.43,0,0,1-.89-3.24c-.06-.31-.22-1.54-.55-6.44-.25-3.69-.42-6.45-.49-8.2,0-.76-.14-2.23-.36-4.46-.18-2-.31-3.67-.39-5q1.4-.15,3.09-.29a62.07,62.07,0,0,1,6.41-.32A11.25,11.25,0,0,0,281,18.14c2.51-1.71,3.1-3.67,3.14-5a6.53,6.53,0,0,0-2.23-4.93,9.69,9.69,0,0,0-6.35-2.67Z" transform="translate(0 -1.96)"/><path class="cls-21" d="M287.81,58.85a13.33,13.33,0,0,1-3.26-.54,5.16,5.16,0,0,1-2.89-2.42l-.08-.14-.05-.14c-.52-1.39-1.34-4.75-2.77-17.93V37.6c-.09-1.69-.5-5.06-1.23-10-1.15-7.77-1.71-12.82-1.65-15.42.07-2.82.86-4.85,2.42-6.2S282.54,3.88,286,4h.19a9.35,9.35,0,0,1,4.92,1.58,4.45,4.45,0,0,1,2.14,3.86c0,.45-.1,1.19-.25,2.31-.32,2.44-.54,4.75-.64,6.88-.06,1.17.06,3.38.3,6.51,0,.28,0,.55.06.81q.91-.55,2-1.06a22.41,22.41,0,0,1,11.49-2.13l.19,0a10.57,10.57,0,0,1,8.87,6c1.6,3.22,2.14,7.49,1.67,13,0,.47-.19,1.55-.91,5.46-.59,3.18-.91,5.33-1,6.32a5.53,5.53,0,0,1-2.61,4.3,9.24,9.24,0,0,1-5.84,1.16h-.11l-.11,0a8.74,8.74,0,0,1-4.49-1.89,4.66,4.66,0,0,1-1.75-3.9c0-.77.26-2.19.63-4.34a84.46,84.46,0,0,0,1.15-8.63,21,21,0,0,0-.51-6.93A6,6,0,0,0,300.8,32c-.65.15-2,.68-4,2.59s-3.21,3.85-3.29,5.5a42.41,42.41,0,0,0,.41,9.47,25.87,25.87,0,0,1,.68,5,4.14,4.14,0,0,1-1.94,3.4,7.35,7.35,0,0,1-4.42.92Z" transform="translate(0 -1.96)"/><path class="cls-22" d="M286,6.09a6.23,6.23,0,0,1,3.28,1,2.55,2.55,0,0,1,1.26,2.23q0,.6-.23,2.17-.48,3.75-.62,7a62.74,62.74,0,0,0,.33,6.72q.34,4.43.33,6.44c.68-1.82,2.57-3.49,5.71-5a19.36,19.36,0,0,1,10-1.86h.14a7.89,7.89,0,0,1,6.65,4.69c1.45,2.89,2,6.94,1.53,12.13q-.08,1-.87,5.3-.88,4.91-1,6.49a3.7,3.7,0,0,1-1.7,2.89,6.52,6.52,0,0,1-4.11.76,6,6,0,0,1-3.07-1.26,2.72,2.72,0,0,1-1-2.34q.07-1.05.62-4.16a86.54,86.54,0,0,0,1.2-8.81,22.43,22.43,0,0,0-.55-7.49q-.84-3-2.43-3.1h0c-1.89-.13-4.1,1-6.57,3.33S291.09,37.87,291,40a43.17,43.17,0,0,0,.47,9.87,37.83,37.83,0,0,1,.67,4.55c-.09,1.76-1.35,2.56-3.77,2.43l-.42,0a10.84,10.84,0,0,1-2.52-.39,2.8,2.8,0,0,1-1.53-1.36c-.75-2-1.59-7.84-2.61-17.49-.09-1.74-.48-5.13-1.21-10.17-1.1-7.61-1.64-12.66-1.57-15.14q.1-3.45,1.78-4.9c1.13-1,3-1.4,5.59-1.27H286M286.27,2H286c-4.25-.2-7.54.68-9.75,2.59-2,1.72-3,4.18-3.05,7.5-.06,2.7.53,7.84,1.72,15.7.75,4.91,1.16,8.23,1.25,9.87v.18c1.48,13.22,2.33,16.76,2.94,18.36l.11.28.16.27a7.63,7.63,0,0,0,4.26,3.47,16.08,16.08,0,0,0,4,.68l.51,0c5.11.27,8.7-2.19,8.94-6.21,0-.54,0-1.31-.69-5.32a40,40,0,0,1-.36-9.11c.07-1.18,1-2.67,2.73-4.3l.41-.38a24.24,24.24,0,0,1,.1,4.58,83.83,83.83,0,0,1-1.1,8.46,43.65,43.65,0,0,0-.63,4.52,6.55,6.55,0,0,0,2.48,5.46A11.48,11.48,0,0,0,306,61.13l.21,0,.21,0a12,12,0,0,0,7.56-1.56A7.49,7.49,0,0,0,317.47,54v-.07c.06-.65.28-2.25,1-6.16s.9-5.06.95-5.61c.52-5.86-.06-10.42-1.8-13.94a13.36,13.36,0,0,0-11.09-7.42l-.24,0A25.46,25.46,0,0,0,295,22.41c-.12-2-.12-3-.09-3.58.11-2.09.32-4.36.65-6.75.21-1.53.26-2.13.27-2.44a6.38,6.38,0,0,0-3-5.49A12.63,12.63,0,0,0,286.27,2Z" transform="translate(0 -1.96)"/><path class="cls-21" d="M325.43,61.34c-8-1-8.54-5.23-8.38-7,.41-4.73,4.34-9.06,11.7-12.77.83-.42,2-1,3.59-1.77s3.11-1.48,4.65-2.19a20.7,20.7,0,0,1,1.95-.79,4.15,4.15,0,0,0-.59-1.22c-.37-.5-.65-.54-.81-.56a8.65,8.65,0,0,0-3.05.31,10.44,10.44,0,0,0-3,1.11c-1.92,1.21-3.15,1.64-4.39,1.51H327a7.89,7.89,0,0,1-4.13-1.84A4.47,4.47,0,0,1,321,32.21c.11-1.3,1-3.11,4.74-4.3a53,53,0,0,1,7.8-1.76,27.18,27.18,0,0,1,7.08-.43l.24,0a12.84,12.84,0,0,1,8.51,4.56c1.89,2.31,3.09,5.55,3.93,9.49a38,38,0,0,1,.08,12.89,28.35,28.35,0,0,1-1.89,7c-.77,1.87-1.46,2.79-2.47,3.24a8,8,0,0,1-2.65.61,11.84,11.84,0,0,1-2.58,0l-.2,0a9.09,9.09,0,0,1-4.28-1.67,4.82,4.82,0,0,1-1.53-1.91,25.53,25.53,0,0,1-3.23.94,26.83,26.83,0,0,1-8.73.57Zm13.84-14.52c-5.61,2.5-7.16,4.51-7.52,5.71A8.84,8.84,0,0,0,336.36,51a11.78,11.78,0,0,1,2.6-1.11h0Q339.14,48.2,339.26,46.82Z" transform="translate(0 -1.96)"/><path class="cls-22" d="M340.55,27.78a10,10,0,0,1,6.64,3.56A19.18,19.18,0,0,1,350.74,40q1.14,4.6.1,12.32a26.25,26.25,0,0,1-1.75,6.54q-.78,1.92-1.4,2.2a5.39,5.39,0,0,1-1.74.38,9,9,0,0,1-1.93,0l-.16,0a6.22,6.22,0,0,1-2.93-1.11,2.27,2.27,0,0,1-1-2.17l.57-2.2a17.94,17.94,0,0,1-6.77,2.87,23.71,23.71,0,0,1-7.75.52l-.33,0c-4.33-.53-6.38-2.1-6.13-4.77.37-4.09,3.86-7.89,10.63-11.24q1.26-.64,3.57-1.76t4.62-2.16a9.46,9.46,0,0,1,3.42-1,7.16,7.16,0,0,0-1.22-3.7A3.92,3.92,0,0,0,337.81,33h-.07a11.84,11.84,0,0,0-4.15.38,12.85,12.85,0,0,0-3.75,1.44,5.37,5.37,0,0,1-2.52,1.11h-.06a4.92,4.92,0,0,1-2.57-1.19,2.61,2.61,0,0,1-1.15-2.24c.1-1.1,1.18-2,3.25-2.64a50,50,0,0,1,7.37-1.65,25.2,25.2,0,0,1,6.2-.42l.2,0M331.1,54.52h.08a10.71,10.71,0,0,0,6.76-1.89,9.59,9.59,0,0,1,2-.85,8.21,8.21,0,0,1,1.36-.36v0h0q.64-5.32.7-8.07c-8.32,3-12.55,6.17-12.87,9.28-.11,1.08.53,1.7,1.94,1.88m10-30.8-.29,0a30,30,0,0,0-8,.45A55.69,55.69,0,0,0,324.62,26c-4.88,1.56-6.07,4.11-6.23,6a6.51,6.51,0,0,0,2.7,5.51A11,11,0,0,0,326.77,40l.15,0c-7.82,4-11.93,8.8-12.37,14.1-.32,3.87,2.3,8.28,10.63,9.3l.41,0a29.85,29.85,0,0,0,9.69-.62q.74-.16,1.45-.36a8.25,8.25,0,0,0,.91.81,11.94,11.94,0,0,0,5.61,2.23l.24,0a14.8,14.8,0,0,0,3.24,0,10.63,10.63,0,0,0,3.55-.84c1.91-.87,2.83-2.58,3.54-4.29a29.75,29.75,0,0,0,2-7.35c.78-5.55.77-10-.05-13.46a22.42,22.42,0,0,0-4.3-10.32,15.86,15.86,0,0,0-10.39-5.56Z" transform="translate(0 -1.96)"/><path class="cls-21" d="M365.68,68.17A11.25,11.25,0,0,1,361,66.32a5.84,5.84,0,0,1-1.69-1.85c-.39-.71-.55-1.72-.28-5,.31-3.73.63-6.67.93-8.73.15-1,.42-3.49.76-7.31.08-.87.13-1.56.18-2.11-.64-.06-1.17-.12-1.6-.19h0a6.22,6.22,0,0,1-3.58-1.83,3.71,3.71,0,0,1-1.22-3.08,4.51,4.51,0,0,1,1.79-3.11,5.77,5.77,0,0,1,4.39-1,6.63,6.63,0,0,0,.7.05c0-1.09,0-2.39-.08-3.9a24.61,24.61,0,0,1,0-4.53,4.71,4.71,0,0,1,2.7-3.6,8.66,8.66,0,0,1,5.4-.67l.21,0a10.18,10.18,0,0,1,4.91,2.14c1.84,1.56,2,3.07,1.86,4.06,0,.13-.08.67-.2,2.86-.09,1.61-.18,3-.28,4.09q.41,0,.79.1l.12,0a6.71,6.71,0,0,1,4,2.25,4.53,4.53,0,0,1,1.08,3.73,3.75,3.75,0,0,1-.9,1.87,4.92,4.92,0,0,1-1.77,1.25c-.55.24-1.2.4-3.91.4-.11.93-.25,2.19-.41,3.75-.3,2.87-.48,4.81-.52,5.75,0,1.1-.21,3.24-.54,6.47s-.56,5.19-.7,6a4.54,4.54,0,0,1-2.56,3.16,7.19,7.19,0,0,1-4.73.81Z" transform="translate(0 -1.96)"/><path class="cls-22" d="M369.3,21.51A7,7,0,0,1,372.71,23a2.51,2.51,0,0,1,1.12,2.29q-.08.52-.21,3-.24,4.67-.54,6.55a10.51,10.51,0,0,0,1.29-.07,7.11,7.11,0,0,1,2.05,0h.07a3.71,3.71,0,0,1,2.25,1.27,2.68,2.68,0,0,1,.65,2.24,2.07,2.07,0,0,1-.49,1,2.72,2.72,0,0,1-1,.7,22.4,22.4,0,0,1-4.87.15q-.19,1.15-.62,5.5t-.5,5.84q0,1.64-.51,6.38t-.66,5.89a2.75,2.75,0,0,1-1.57,1.85,4.35,4.35,0,0,1-2.92.52l-.19,0a8.49,8.49,0,0,1-3.47-1.35,3.52,3.52,0,0,1-1-1.09q-.33-.59,0-4,.49-5.59.95-8.62.24-1.6.79-7.4.32-3.62.41-4.25l-1.42-.12q-1.78-.13-2.66-.27h-.05a3.15,3.15,0,0,1-1.81-1,1.91,1.91,0,0,1-.66-1.54,2.79,2.79,0,0,1,1.08-1.94,2.87,2.87,0,0,1,2.24-.48,14,14,0,0,0,1.84.1,10.84,10.84,0,0,1,1.58.07,30.93,30.93,0,0,0,.1-6,23.51,23.51,0,0,1,0-4.2,2.87,2.87,0,0,1,1.66-2.24,5.66,5.66,0,0,1,3.52-.4l.16,0m.71-4-.26,0a11.8,11.8,0,0,0-7.29.94,6.49,6.49,0,0,0-3.73,5,25.71,25.71,0,0,0,0,4.85q.06,1,.09,1.78a8,8,0,0,0-4.35,1.55,6.31,6.31,0,0,0-2.5,4.29,5.55,5.55,0,0,0,1.79,4.61A9,9,0,0,0,358.21,43v.16c-.33,3.78-.58,6.21-.72,7.2-.3,2.09-.6,5.07-.91,8.83-.27,3.44-.15,4.86.53,6.08a8.24,8.24,0,0,0,2.29,2.54l0,0,.05,0a14.33,14.33,0,0,0,5.83,2.34l.28,0a9.94,9.94,0,0,0,6.54-1.08,6.38,6.38,0,0,0,3.55-4.46c.09-.53.27-1.75.73-6.09.34-3.24.53-5.39.57-6.58,0-.92.23-2.82.53-5.63.09-.8.16-1.49.23-2.08a8.21,8.21,0,0,0,2.9-.58,7.1,7.1,0,0,0,2.54-1.79,5.44,5.44,0,0,0,1.32-2.69A6.32,6.32,0,0,0,383,34a9.28,9.28,0,0,0-4.3-2.87q.08-1.05.15-2.29c.12-2.16.18-2.63.19-2.71.33-2-.58-4.09-2.6-5.82A13.3,13.3,0,0,0,370,17.49Z" transform="translate(0 -1.96)"/></svg>