<?xml version="1.0" encoding="utf-8"?>
<!-- Generator: Adobe Illustrator 22.1.0, SVG Export Plug-In . SVG Version: 6.00 Build 0)  -->
<svg version="1.1" id="Layer_1" xmlns="http://www.w3.org/2000/svg" xmlns:xlink="http://www.w3.org/1999/xlink" x="0px" y="0px"
	 viewBox="0 0 183 183.1" style="enable-background:new 0 0 183 183.1;" xml:space="preserve">
<style type="text/css">
	.st0{fill:#FFFFFF;}
</style>
<g>
	<path class="st0" d="M183,81.1c0,0.3,0,0.7,0,1c-1.9,0.4-3.9,1-5.8,1c-14.6,0.1-29.3,0.1-43.9,0c-5,0-5-0.1-6.7-4.8
		c-6.4-17.5-23.3-27.2-42.2-23.7c-14,2.6-23.5,11-28.4,24.5c-1.4,3.9-1.4,4-5.7,4c-15,0-30,0-44.9,0c-1.8,0-3.5-0.7-5.3-1
		c0-1,0-2,0-3c0.3-0.9,0.8-1.8,0.9-2.8c1.9-11.3,5.7-21.8,11.7-31.6c9.1-15,21.1-26.9,36.8-34.9c13.2-6.7,27.2-10.2,42.2-10
		C106.3-0.1,120,3,133,9.6c12.2,6.2,22.4,14.8,30.8,25.6c9.5,12.2,15.2,26,18.2,41.1C182.3,77.9,182.6,79.5,183,81.1z"/>
	<path class="st0" d="M183,100.1c0,0.7,0,1.3,0,2c-0.3,0.8-0.7,1.5-0.9,2.3c-3.3,22.1-13.3,40.3-29.9,55.3
		c-12.7,11.5-27.4,18.5-44.1,21.7c-2.7,0.5-5.4,1.2-8.2,1.7c-5.7,0-11.3,0-17,0c-0.6-0.3-1.2-0.7-1.8-0.8
		c-24-2.9-43.9-13.4-59.6-31.8c-9.2-10.8-15.7-23-19-36.8c-0.9-3.5-1.7-7-2.6-10.5c0-1,0-2,0-3c17,0,33.9-0.1,50.9-0.1
		c3.8,0,4,0.1,5.2,4c2.3,7.3,6.8,12.9,12.8,17.3c13.1,9.8,30.3,10.2,43.8,0.9c6.6-4.5,11.4-10.7,14.1-18.3c0.9-2.7,2.2-4,5.3-4
		C149,100,166,100,183,100.1z"/>
	<path class="st0" d="M67.9,91.3c0-12.9,11.1-24.5,23.7-23.9c15.1,0.7,23.2,12.5,23.5,23.7c0.3,12.8-11.3,24-23.6,24
		C78.4,115.1,67.3,103.7,67.9,91.3z"/>
</g>
</svg>
